# xmcd
#
# Track frame offsets: 
#        183
#        20948
#        40850
#        59428
#        81643
#        89340
#        108008
#        130240
#        151853
#        175083
#        198008
#        221370
#
# Disc length: 3283 seconds
#
# Revision: 2
# Processed by: cddbd v1.5.2PL0 Copyright (c) Steve Scherf et al.
# Submitted via: ExactAudioCopyFreeDBPlugin 1.0
#
DISCID=9b0cd10c
DTITLE=Chris Bender - Draped
DYEAR=1991
DGENRE=Funk
TTITLE0=I Knew
TTITLE1=Draped
TTITLE2=It's All About You
TTITLE3=Spellbound
TTITLE4=Prelude...Stay Til The Morning
TTITLE5=Don't Go Home
TTITLE6=That's Not The Way
TTITLE7=Sorry Didn't Do It
TTITLE8=Who Will I Choose
TTITLE9=Pouring Like Rain
TTITLE10=Kiss and Makeup
TTITLE11=Kiss and Makeup (The Apology Mix) Bonus Track
EXTD=ID3G:  20
EXTT0=
EXTT1=
EXTT2=
EXTT3=
EXTT4=
EXTT5=
EXTT6=
EXTT7=
EXTT8=
EXTT9=
EXTT10=
EXTT11=
PLAYORDER=
